<svg width="171" height="171" viewBox="0 0 171 171" fill="none" xmlns="http://www.w3.org/2000/svg">
<path fill-rule="evenodd" clip-rule="evenodd" d="M85.3862 170.772C132.544 170.772 170.772 132.544 170.772 85.3862C170.772 38.2287 132.544 0 85.3862 0C38.2287 0 0 38.2287 0 85.3862C0 132.544 38.2287 170.772 85.3862 170.772ZM85.4091 164.287C128.963 164.287 164.27 128.98 164.27 85.4261C164.27 41.8724 128.963 6.56521 85.4091 6.56521C41.8554 6.56521 6.54817 41.8724 6.54817 85.4261C6.54817 128.98 41.8554 164.287 85.4091 164.287Z" fill="#000000"/>
<path fill-rule="evenodd" clip-rule="evenodd" d="M136.496 129.116C146.526 117.395 152.584 102.173 152.584 85.5368C152.584 68.9007 146.527 53.6795 136.497 41.9582L136.496 129.116ZM120.805 142.579V109.396H51.7336V143.481C61.6551 149.279 73.1995 152.601 85.52 152.601C98.466 152.601 110.555 148.933 120.805 142.579ZM36.0413 130.808C25.1197 118.878 18.4558 102.986 18.4558 85.5368C18.4558 68.0878 25.1197 52.1952 36.0413 40.2652V130.808ZM51.7336 27.5925V61.466H120.805V28.4947C110.555 22.1409 98.466 18.4727 85.52 18.4727C73.1995 18.4727 61.6551 21.7949 51.7336 27.5925ZM121.545 95.2403H52.4749V75.691H121.545V95.2403Z" fill="#000000"/>
</svg>
